<svg xmlns="http://www.w3.org/2000/svg" width="34.569" height="23.7" viewBox="0 0 34.569 23.7">
  <path id="Icon_material-people-outline" data-name="Icon material-people-outline" d="M25.856,21.043a17.7,17.7,0,0,0-7.071,1.693,17.418,17.418,0,0,0-7.071-1.693c-3.41,0-10.214,1.828-10.214,5.5V31.2H36.069V26.545C36.069,22.871,29.266,21.043,25.856,21.043ZM19.57,28.661H3.857V26.545c0-.914,4.023-2.963,7.857-2.963s7.857,2.048,7.857,2.963Zm14.142,0H21.927V26.545a3.2,3.2,0,0,0-.817-2.065,14.188,14.188,0,0,1,4.745-.9c3.834,0,7.857,2.048,7.857,2.963Zm-22-9.311a5.731,5.731,0,0,0,5.5-5.925,5.731,5.731,0,0,0-5.5-5.925,5.731,5.731,0,0,0-5.5,5.925A5.731,5.731,0,0,0,11.714,19.35Zm0-9.311a3.281,3.281,0,0,1,3.143,3.386,3.281,3.281,0,0,1-3.143,3.386,3.281,3.281,0,0,1-3.143-3.386A3.281,3.281,0,0,1,11.714,10.039ZM25.856,19.35a5.731,5.731,0,0,0,5.5-5.925,5.731,5.731,0,0,0-5.5-5.925,5.731,5.731,0,0,0-5.5,5.925A5.731,5.731,0,0,0,25.856,19.35Zm0-9.311A3.281,3.281,0,0,1,29,13.425a3.281,3.281,0,0,1-3.143,3.386,3.281,3.281,0,0,1-3.143-3.386A3.281,3.281,0,0,1,25.856,10.039Z" transform="translate(-1.5 -7.5)" fill="#babebe"/>
</svg>
