<svg xmlns="http://www.w3.org/2000/svg" viewBox="0 0 49.68 83.49"><defs><style>.cls-1{fill:#fff;}.cls-2{fill:#d1463d;}.cls-3{fill:#e06361;}</style></defs><title>Kort.4Placering.Marker.1</title><g id="Layer_2" data-name="Layer 2"><g id="pile"><circle class="cls-1" cx="24.41" cy="23.59" r="16.75"/><path class="cls-2" d="M24.81,0C11.69,0,.93,9.6,0,21.75c0,1.32,0,2.63,0,3.94C1.41,55.86,24.81,83.47,24.81,83.47v0S48.23,55.86,49.57,25.68c.07-.73.11-1.48.11-2.22C49.68,10.5,38.54,0,24.81,0Zm0,39.26c-9,0-16.32-7-16.32-15.68S15.82,7.92,24.84,7.92s16.33,7,16.33,15.66S33.86,39.26,24.84,39.26Z"/><path class="cls-3" d="M22.55,37.26a17.16,17.16,0,0,0-2.52-.8,12,12,0,0,1-8.26-9.9,13.77,13.77,0,0,1,2.56-11A12.16,12.16,0,0,1,21.83,11,13.81,13.81,0,0,1,32,12.63l.09,0c1.75,1.09,1.8,2,.2,3.32-.4.34-.61,0-.84-.16a10.26,10.26,0,0,0-6.34-2.3,9.72,9.72,0,0,0-9.09,5,10.61,10.61,0,0,0,1.54,12.9,9.78,9.78,0,0,0,8.54,2.92,10.88,10.88,0,0,0,5.29-2.13c.49-.36.76-.42,1.19.13,1.34,1.72,1.36,1.67-.49,2.92A12.51,12.51,0,0,1,27.76,37c-.21,0-.48,0-.61.24Z"/></g><g id="Layer_46" data-name="Layer 46"><circle class="cls-1" cx="24.84" cy="23.97" r="16.32"/><path class="cls-3" d="M32.56,16.2l1.5-2S31.74,10.76,25,10.76,12.08,15.89,12.08,24,17.83,37.32,25,37.32,34,34.26,34,34.26L32.33,32S30,34.54,25,34.54A10.27,10.27,0,0,1,15,24c0-6.13,4.25-10.43,9.91-10.43S32.56,16.2,32.56,16.2Z"/></g></g></svg>