<svg xmlns="http://www.w3.org/2000/svg" viewBox="0 0 49.68 83.49"><defs><style>.cls-1{fill:#fff;}.cls-2{fill:#b2b4c1;}.cls-3{fill:#b2b4c1;}</style></defs><title>Kort.1Placering.Marker.v1</title><g id="Layer_2" data-name="Layer 2"><g id="pile"><circle class="cls-1" cx="24.41" cy="23.59" r="16.75"/><path class="cls-2" d="M24.81,0C11.69,0,.93,9.6,0,21.75c0,1.32,0,2.63,0,3.94C1.41,55.86,24.81,83.47,24.81,83.47v0S48.23,55.86,49.57,25.68c.07-.73.11-1.48.11-2.22C49.68,10.5,38.54,0,24.81,0Zm0,39.26c-9,0-16.32-7-16.32-15.68S15.82,7.92,24.84,7.92s16.33,7,16.33,15.66S33.86,39.26,24.84,39.26Z"/></g><g id="Layer_46" data-name="Layer 46"><circle class="cls-1" cx="24.84" cy="23.97" r="16.32"/><path class="cls-3" d="M32.57,16.2l1.5-2S31.75,10.76,25,10.76,12.08,15.89,12.08,24,17.83,37.32,25,37.32,34,34.26,34,34.26L32.33,32S30,34.54,25,34.54A10.26,10.26,0,0,1,15.05,24c0-6.13,4.25-10.43,9.9-10.43S32.57,16.2,32.57,16.2Z"/></g></g></svg>