<svg xmlns="http://www.w3.org/2000/svg" width="32.725" height="32.725" viewBox="0 0 32.725 32.725">
  <path id="Icon_map-place-of-worship" data-name="Icon map-place-of-worship" d="M29.546,9.512,17.054.72,14.242,2.7l.042.033-11,7.82L.72,12.333v4.161L3.337,14.73V33.445H30.829V14.563l2.617,1.931V12.333ZM26.9,29.458H6.829V12.213l10.266-7.39L26.9,11.881ZM12.47,14.2a1.343,1.343,0,1,0-.951-.4A1.346,1.346,0,0,0,12.47,14.2ZM10.648,27.291a.772.772,0,0,0,.711.812.684.684,0,0,0,.7-.719V21.042h.873v6.341a.7.7,0,0,0,.668.766.819.819,0,0,0,.715-.859l-.033-11.121h.83V20.6c0,.443.873.443.873,0V16.268a1.765,1.765,0,0,0-1.747-1.783L10.7,14.477A1.721,1.721,0,0,0,9.01,16.246V20.6c0,.443.872.443.872,0v-4.43h.776ZM21.952,14.2a1.357,1.357,0,1,0-1.341-1.355A1.347,1.347,0,0,0,21.952,14.2ZM20.133,27.291a.815.815,0,0,0,.763.812.734.734,0,0,0,.768-.719V21.042H22.1v6.341a.829.829,0,0,0,.828.766.885.885,0,0,0,.795-.859l.046-11.121h.513V20.6c0,.443,1.308.443,1.308,0V16.268a1.817,1.817,0,0,0-1.8-1.783l-3.512-.008a1.7,1.7,0,0,0-1.664,1.769V20.6c0,.443.873.443.873,0v-4.43h.655Z" transform="translate(-0.72 -0.72)" fill="#bcd9db"/>
</svg>
