<svg xmlns="http://www.w3.org/2000/svg" width="26.992" height="30.849" viewBox="0 0 26.992 30.849">
  <path id="Icon_metro-organization" data-name="Icon metro-organization" d="M27.635,13.5H8.355A3.857,3.857,0,0,0,4.5,17.352V19.28A3.837,3.837,0,0,0,6.427,22.6v6.319h7.712v3.856h7.712V28.921h7.712V22.6a3.837,3.837,0,0,0,1.928-3.321V17.352A3.858,3.858,0,0,0,27.635,13.5Zm-15.424,13.5H8.355V19.28H6.427V17.352a1.929,1.929,0,0,1,1.928-1.928h2.462a3.813,3.813,0,0,0-.534,1.928v3.856a3.837,3.837,0,0,0,1.928,3.321v2.463Zm9.64-3.856V19.28H19.923V30.849H16.067V19.28H14.139v3.856a1.928,1.928,0,0,1-1.928-1.928V17.352a1.929,1.929,0,0,1,1.928-1.928h7.712a1.928,1.928,0,0,1,1.928,1.928v3.856a1.927,1.927,0,0,1-1.928,1.928Zm7.712-3.856H27.635v7.712H23.779V24.53a3.837,3.837,0,0,0,1.928-3.321V17.352a3.813,3.813,0,0,0-.535-1.928h2.463a1.928,1.928,0,0,1,1.928,1.928V19.28ZM13.647,11.489a5.712,5.712,0,0,0,8.695,0,3.851,3.851,0,1,0,1.275-5.082,5.768,5.768,0,0,0-11.244,0,3.859,3.859,0,1,0,1.275,5.082Zm12.06-3.777A1.928,1.928,0,1,1,23.779,9.64,1.926,1.926,0,0,1,25.707,7.712ZM17.995,3.856a3.856,3.856,0,1,1-3.856,3.856,3.858,3.858,0,0,1,3.856-3.856Zm-7.712,7.712A1.928,1.928,0,1,1,12.211,9.64,1.928,1.928,0,0,1,10.283,11.568Z" transform="translate(-4.499 -1.928)" fill="#549fa4"/>
</svg>
