<svg xmlns="http://www.w3.org/2000/svg" width="28.595" height="32.68" viewBox="0 0 28.595 32.68">
  <path id="Icon_awesome-building" data-name="Icon awesome-building" d="M27.829,30.637H26.552V1.532A1.532,1.532,0,0,0,25.02,0H3.574A1.532,1.532,0,0,0,2.042,1.532V30.637H.766A.766.766,0,0,0,0,31.4V32.68H28.595V31.4A.766.766,0,0,0,27.829,30.637ZM8.17,4.851a.766.766,0,0,1,.766-.766h2.553a.766.766,0,0,1,.766.766V7.4a.766.766,0,0,1-.766.766H8.936A.766.766,0,0,1,8.17,7.4Zm0,6.127a.766.766,0,0,1,.766-.766h2.553a.766.766,0,0,1,.766.766v2.553a.766.766,0,0,1-.766.766H8.936a.766.766,0,0,1-.766-.766Zm3.319,9.446H8.936a.766.766,0,0,1-.766-.766V17.106a.766.766,0,0,1,.766-.766h2.553a.766.766,0,0,1,.766.766v2.553A.766.766,0,0,1,11.489,20.425ZM16.34,30.637H12.255V25.276a.766.766,0,0,1,.766-.766h2.553a.766.766,0,0,1,.766.766Zm4.085-10.978a.766.766,0,0,1-.766.766H17.106a.766.766,0,0,1-.766-.766V17.106a.766.766,0,0,1,.766-.766h2.553a.766.766,0,0,1,.766.766Zm0-6.127a.766.766,0,0,1-.766.766H17.106a.766.766,0,0,1-.766-.766V10.978a.766.766,0,0,1,.766-.766h2.553a.766.766,0,0,1,.766.766Zm0-6.127a.766.766,0,0,1-.766.766H17.106A.766.766,0,0,1,16.34,7.4V4.851a.766.766,0,0,1,.766-.766h2.553a.766.766,0,0,1,.766.766Z" fill="#549fa4"/>
</svg>
