<svg xmlns="http://www.w3.org/2000/svg" width="40.125" height="28.375" viewBox="0 0 40.125 28.375">
  <g id="Group_632" data-name="Group 632" transform="translate(-57.375 -117.625)">
    <path id="Path_1089" data-name="Path 1089" d="M26.125,31.5v-3a6.3,6.3,0,0,0-6.567-6H8.067a6.3,6.3,0,0,0-6.567,6v3" transform="translate(57.375 96.625)" fill="none" stroke="#bcd9db" stroke-linecap="round" stroke-linejoin="round" stroke-width="3"/>
    <path id="Path_1097" data-name="Path 1097" d="M26.125,31.5v-3a6.3,6.3,0,0,0-6.567-6H8.067a6.3,6.3,0,0,0-6.567,6v3" transform="translate(85 167) rotate(180)" fill="none" stroke="#bcd9db" stroke-linecap="round" stroke-linejoin="round" stroke-width="3"/>
    <path id="Path_1091" data-name="Path 1091" d="M30,12v9" transform="translate(61.5 113.5)" fill="none" stroke="#bcd9db" stroke-linecap="round" stroke-linejoin="round" stroke-width="3"/>
    <path id="Path_1095" data-name="Path 1095" d="M30,12v9" transform="translate(53.5 115.5)" fill="none" stroke="#bcd9db" stroke-linecap="round" stroke-linejoin="round" stroke-width="3"/>
    <path id="Path_1096" data-name="Path 1096" d="M30,12v9" transform="translate(88.875 148.125) rotate(180)" fill="none" stroke="#bcd9db" stroke-linecap="round" stroke-linejoin="round" stroke-width="3"/>
    <path id="Path_1092" data-name="Path 1092" d="M34.5,16.5h-9" transform="translate(61.5 113.5)" fill="none" stroke="#bcd9db" stroke-linecap="round" stroke-linejoin="round" stroke-width="3"/>
    <path id="Path_1093" data-name="Path 1093" d="M11.625,6.938A2.438,2.438,0,1,1,9.188,4.5,2.437,2.437,0,0,1,11.625,6.938Z" transform="translate(66.5 129.5)" fill="none" stroke="#bcd9db" stroke-linecap="round" stroke-linejoin="round" stroke-width="3"/>
  </g>
</svg>
